<svg width="24" height="24" viewBox="0 0 24 24" fill="none" xmlns="http://www.w3.org/2000/svg">
<g clip-path="url(#clip0)">
<path fill-rule="evenodd" clip-rule="evenodd" d="M10.5858 9.17157C11.3669 9.95262 12.6332 9.95262 13.4142 9.17157L16.9498 5.63604C17.3403 5.24552 17.9735 5.24551 18.364 5.63604C18.7545 6.02656 18.7545 6.65973 18.364 7.05025L14.8284 10.5858C14.0474 11.3668 14.0474 12.6332 14.8284 13.4142L18.364 16.9497C18.7545 17.3403 18.7545 17.9734 18.364 18.364C17.9735 18.7545 17.3403 18.7545 16.9498 18.364L13.4142 14.8284C12.6332 14.0474 11.3669 14.0474 10.5858 14.8284L7.05027 18.364C6.65974 18.7545 6.02658 18.7545 5.63606 18.364C5.24553 17.9734 5.24553 17.3403 5.63606 16.9497L9.17159 13.4142C9.95264 12.6332 9.95264 11.3668 9.17159 10.5858L5.63606 7.05025C5.24553 6.65973 5.24553 6.02656 5.63606 5.63604C6.02658 5.24551 6.65974 5.24551 7.05027 5.63604L10.5858 9.17157Z" fill="white"/>
</g>
<defs>
<clipPath id="clip0">
<rect width="24" height="24" fill="white"/>
</clipPath>
</defs>
</svg>
